<svg width="27" height="27" viewBox="0 0 27 27" fill="none" xmlns="http://www.w3.org/2000/svg">
<path fill-rule="evenodd" clip-rule="evenodd" d="M20.6089 16.2367C23.3581 12.7059 23.1098 7.59769 19.864 4.35186C16.3492 0.83714 10.6508 0.837141 7.13604 4.35186C3.62132 7.86658 3.62132 13.5651 7.13604 17.0798C10.3819 20.3256 15.4901 20.5739 19.0209 17.8247C19.0361 17.8419 19.052 17.8588 19.0685 17.8753L23.8414 22.6482C24.2808 23.0876 24.9931 23.0876 25.4324 22.6482C25.8718 22.2089 25.8718 21.4966 25.4324 21.0573L20.6595 16.2843C20.643 16.2678 20.6261 16.252 20.6089 16.2367ZM18.273 5.94285C20.909 8.57889 20.909 12.8528 18.273 15.4888C15.6369 18.1248 11.3631 18.1248 8.72703 15.4888C6.09099 12.8528 6.09099 8.57889 8.72703 5.94285C11.3631 3.30681 15.6369 3.30681 18.273 5.94285Z" fill="#272525"/>
</svg>
